<svg width="400" height="400" viewBox="0 0 400 400" xmlns="http://www.w3.org/2000/svg">
    <rect width="400" height="400" fill="#ffffff" />
    <path 
    d="
M150 200 A21 21 0 0 1 171 179
M150 200 A21 21 0 0 0 171 179
M171 179 A34 34 0 0 1 137 145
M171 179 A34 34 0 0 0 137 145
M137 145 A55 55 0 0 1 82 200
M137 145 A55 55 0 0 0 82 200
M82 200 A89 89 0 0 1 171 289
M82 200 A89 89 0 0 0 171 289
M171 289 A144 144 0 0 1 315 145
M171 289 A144 144 0 0 0 315 145
    "
    fill="none" stroke="#00ffff"
    stroke-width="100"
    stroke-linecap="round"/>
    <path 
    d="
M171 179 A34 34 0 0 0 137 145
M171 179 A34 34 0 0 1 137 145
M137 145 A55 55 0 0 0 82 200
M137 145 A55 55 0 0 1 82 200
M82 200 A89 89 0 0 0 171 289
M82 200 A89 89 0 0 1 171 289
M171 289 A144 144 0 0 0 315 145
M171 289 A144 144 0 0 1 315 145
    "
    fill="none" stroke="#000000"
    stroke-width="10"
    stroke-linecap="round"/>
    <circle cx="150" cy="200" r="15" fill="#ff0000"/>
</svg>