<svg width="350" height="350" viewBox="0 0 350 350" xmlns="http://www.w3.org/2000/svg">
    <!-- <rect width="350" height="350" fill="#fff" /> -->
    <path d="M126 175 A21 21 0 0 1 147 154
M147 154 A34 34 0 0 1 113 120
M113 120 A55 55 0 0 1 58 175
M58 175 A89 89 0 0 1 147 264
M147 264 A144 144 0 0 1 291 120"
        fill="none" stroke="#00ffff"
        stroke-width="115"
        stroke-linecap="round" />
    <path d=" M126 175 A21 21 0 0 1 147 154
M147 154 A34 34 0 0 1 113 120
M113 120 A55 55 0 0 1 58 175
M58 175 A89 89 0 0 1 147 264
M147 264 A144 144 0 0 1 291 120"
        fill="none" stroke="#000000"
        stroke-width="25"
        stroke-linecap="round" />
    <circle cx="126" cy="175" r="5" fill="#00ffff"/>
</svg>