<svg width="600" height="600" viewBox="0 0 600 600" xmlns="http://www.w3.org/2000/svg">
    <!-- <rect width="600" height="600" fill="#ffffff" /> -->
    <path
        d="M251.565 233.066 A59.867 59.867 0 0 1 191.698 173.199
M251.565 233.066 A59.867 59.867 0 0 0 191.698 173.199
M191.698 173.199 A96.867 96.867 0 0 1 94.831 270.066
M191.698 173.199 A96.867 96.867 0 0 0 94.831 270.066
M94.831 270.066 A156.735 156.735 0 0 1 251.566 426.801
M94.831 270.066 A156.735 156.735 0 0 0 251.566 426.801
M251.566 426.801 A253.602 253.602 0 0 1 505.168 173.199
M251.566 426.801 A253.602 253.602 0 0 0 505.168 173.199
"
        fill="none" stroke="#00ffff"
        stroke-width="185"
        stroke-linecap="round" />
    <path
        d="M251.565 233.066 A59.867 59.867 0 0 1 191.698 173.199
M251.565 233.066 A59.867 59.867 0 0 0 191.698 173.199
M191.698 173.199 A96.867 96.867 0 0 1 94.831 270.066
M191.698 173.199 A96.867 96.867 0 0 0 94.831 270.066
M94.831 270.066 A156.735 156.735 0 0 1 251.566 426.801
M94.831 270.066 A156.735 156.735 0 0 0 251.566 426.801
M251.566 426.801 A253.602 253.602 0 0 1 505.168 173.199
M251.566 426.801 A253.602 253.602 0 0 0 505.168 173.199
"
        fill="#012772" stroke="#00ffff"
        stroke-width="0"
        stroke-linecap="round" />
    <circle cx="214.5655" cy="270.066" r="20" fill="#012772">
        <animate attributeName="r" values="18.5;37;18.5" dur="1.5s" repeatCount="indefinite" />
    </circle>
    <g fill="#00ffff"><circle cx="221.631" cy="203.132" r="5.987" />
<circle cx="143.264" cy="221.633" r="9.687" />
<circle cx="173.199" cy="348.433" r="15.674" />
<circle cx="378.367" cy="300.0" r="25.36" />
</g>
</svg>