<svg width="800" height="800" viewBox="0 0 800 800" xmlns="http://www.w3.org/2000/svg">
    <rect width="800" height="800" fill="#ffffff" />
    <path
        d="M351.565 333.066 A59.867 59.867 0 0 1 291.698 273.199
M351.565 333.066 A59.867 59.867 0 0 0 291.698 273.199
M291.698 273.199 A96.867 96.867 0 0 1 194.831 370.066
M291.698 273.199 A96.867 96.867 0 0 0 194.831 370.066
M194.831 370.066 A156.735 156.735 0 0 1 351.566 526.801
M194.831 370.066 A156.735 156.735 0 0 0 351.566 526.801
M351.566 526.801 A253.602 253.602 0 0 1 605.168 273.199
M351.566 526.801 A253.602 253.602 0 0 0 605.168 273.199
"
        fill="none" stroke="#00ffff"
        stroke-width="185"
        stroke-linecap="round" />
    <path
        d="M351.565 333.066 A59.867 59.867 0 0 1 291.698 273.199
M351.565 333.066 A59.867 59.867 0 0 0 291.698 273.199
M291.698 273.199 A96.867 96.867 0 0 1 194.831 370.066
M291.698 273.199 A96.867 96.867 0 0 0 194.831 370.066
M194.831 370.066 A156.735 156.735 0 0 1 351.566 526.801
M194.831 370.066 A156.735 156.735 0 0 0 351.566 526.801
M351.566 526.801 A253.602 253.602 0 0 1 605.168 273.199
M351.566 526.801 A253.602 253.602 0 0 0 605.168 273.199
"
        fill="#012772" stroke="#00ffff"
        stroke-width="0"
        stroke-linecap="round" />
    <circle cx="314.5655" cy="370.066" r="20" fill="#012772">
        <!-- <animate attributeName="r" values="18.5;37;18.5" dur="1.5s" repeatCount="indefinite" /> -->
    </circle>
    <g fill="#00ffff"><circle cx="321.632" cy="303.132" r="5.987" />
<circle cx="243.264" cy="321.632" r="9.687" />
<circle cx="273.198" cy="448.433" r="15.674" />
<circle cx="478.367" cy="400.0" r="25.36" />
</g>
</svg>